<?xml version="1.0" standalone="no"?>
<!DOCTYPE svg PUBLIC "-//W3C//DTD SVG 20010904//EN"
 "http://www.w3.org/TR/2001/REC-SVG-20010904/DTD/svg10.dtd">
<svg version="1.0" xmlns="http://www.w3.org/2000/svg"
 width="480.000000pt" height="390.000000pt" viewBox="0 0 480.000000 390.000000"
 preserveAspectRatio="xMidYMid meet">

<g transform="translate(0.000000,390.000000) scale(0.100000,-0.100000)"
fill="#000000" stroke="none">
<path d="M0 3720 c0 -99 1 -180 3 -180 2 0 24 28 49 63 45 61 202 206 276 255
20 14 41 29 47 33 5 5 -75 9 -183 9 l-192 0 0 -180z"/>
<path d="M1025 3858 c20 -24 60 -75 90 -113 129 -168 170 -447 123 -843 -13
-111 -3 -104 -172 -121 l-119 -12 -36 25 c-65 45 -229 115 -343 148 -102 28
-131 32 -286 36 -95 2 -197 1 -227 -3 -48 -6 -55 -9 -55 -29 0 -22 2 -22 68
-14 86 11 309 2 403 -17 141 -27 408 -133 394 -155 -3 -6 -27 -10 -53 -10 -66
0 -282 -38 -301 -53 -28 -21 -31 -31 -31 -99 0 -74 1 -74 -66 -57 -39 10 -48
9 -62 -5 -16 -16 -16 -18 0 -30 9 -7 41 -13 70 -15 29 -1 53 -3 54 -4 1 -1 5
-94 8 -207 12 -379 27 -714 36 -825 15 -169 23 -152 -72 -148 -130 6 -275 31
-365 62 l-83 30 0 -24 c0 -19 10 -27 53 -43 115 -43 228 -63 377 -66 l105 -3
8 -119 c4 -65 17 -219 28 -341 12 -122 19 -229 16 -237 -5 -13 -14 -13 -69 3
-153 44 -350 115 -430 155 l-88 43 0 -383 0 -384 1790 0 1790 0 0 66 c0 59 5
74 45 149 25 46 52 85 59 88 8 3 17 21 21 39 3 18 18 68 31 110 20 60 33 84
62 108 100 85 93 73 92 174 -3 187 -46 490 -101 706 -34 135 -100 332 -133
398 -23 45 -24 61 -31 317 -3 149 -11 311 -16 360 -15 151 -15 148 42 196 43
36 52 40 64 28 39 -40 232 -712 265 -924 6 -38 28 -169 50 -290 71 -398 100
-714 103 -1095 2 -274 0 -306 -30 -412 -4 -17 17 -18 346 -18 l351 0 0 169 0
169 -34 16 c-48 23 -136 91 -164 126 -34 43 -30 84 16 176 44 90 118 257 156
355 26 65 26 67 26 377 0 273 -2 312 -15 312 -9 0 -41 9 -73 20 -31 11 -109
33 -172 49 -63 16 -153 40 -200 54 -47 14 -98 28 -115 32 -16 3 -74 20 -128
37 -93 29 -121 48 -101 68 12 12 274 -13 399 -39 55 -11 165 -34 245 -51 79
-16 148 -30 152 -30 4 0 8 42 8 94 0 109 7 101 -110 112 -41 3 -78 8 -81 10
-3 1 -28 6 -55 9 -27 3 -84 10 -128 17 l-78 11 6 69 c7 80 11 91 34 84 10 -3
31 -7 47 -10 91 -15 286 -45 322 -50 l43 -6 0 218 0 217 -127 23 c-221 39
-263 51 -263 73 0 11 16 35 35 55 19 19 35 43 35 54 0 11 -26 41 -64 72 -86
72 -89 79 -72 191 14 84 25 163 26 178 0 6 97 -24 106 -34 3 -3 -2 -71 -12
-151 -10 -80 -15 -148 -12 -151 3 -3 18 -8 34 -11 64 -10 142 -27 194 -41 30
-8 70 -16 88 -19 31 -4 32 -3 32 29 0 30 -4 35 -32 43 l-33 10 3 68 c2 37 7
89 11 114 6 41 9 47 29 44 l22 -3 0 253 c-1 224 -2 249 -15 221 -14 -34 -48
-58 -70 -49 -11 4 -239 186 -346 276 -39 34 -134 54 -148 31 -6 -9 -19 -9 -52
-2 -27 7 -263 11 -613 11 -497 0 -567 -2 -562 -15 10 -28 29 -183 23 -199 -5
-12 -21 -8 -94 26 -85 39 -90 43 -123 102 -37 67 -56 56 -21 -12 39 -77 119
-309 149 -437 30 -123 82 -411 82 -446 0 -25 -14 -27 -144 -23 l-119 3 -3 69
c-5 113 -62 219 -139 260 -49 26 -142 21 -198 -11 -45 -25 -48 -25 -65 -8 -32
34 -67 49 -123 56 -66 8 -133 -16 -184 -65 l-30 -29 -43 29 c-75 50 -188 53
-279 6 -27 -13 -80 -57 -119 -98 -55 -58 -78 -92 -102 -151 -18 -41 -32 -84
-32 -94 0 -38 -22 -50 -104 -57 -73 -7 -78 -6 -71 11 18 45 27 164 27 353 0
221 -10 298 -58 432 -14 38 -24 73 -22 79 2 5 23 -3 48 -19 66 -42 348 -160
432 -181 120 -31 153 -34 167 -18 6 8 21 62 32 120 11 58 35 153 53 211 22 69
30 106 22 106 -18 0 -87 -229 -111 -364 l-6 -39 -62 6 c-57 5 -90 14 -257 75
-83 30 -258 114 -320 154 -30 20 -82 65 -114 102 -34 38 -68 66 -79 66 -16 0
-13 -7 18 -42z m2119 -93 c192 -104 404 -326 510 -534 50 -99 96 -222 111
-299 8 -41 -5 -63 -94 -155 -72 -75 -79 -74 -80 8 -1 22 -5 45 -9 51 -6 10
-56 18 -271 44 -46 5 -123 10 -172 10 -73 0 -88 3 -94 18 -4 9 -22 103 -40
207 -36 203 -88 410 -129 514 -28 69 -22 99 12 68 17 -15 144 -77 158 -77 7 0
-2 127 -12 167 -9 34 14 30 110 -22z m436 -316 c0 -10 -4 -19 -9 -19 -10 0
-21 36 -14 44 10 10 23 -5 23 -25z m85 1 c3 -5 19 -10 35 -10 32 0 46 -25 36
-64 -5 -22 -8 -22 -56 -12 -49 10 -50 11 -50 46 0 46 18 67 35 40z m290 -79
c38 -10 71 -24 73 -30 7 -20 -8 -81 -19 -81 -6 0 -31 20 -57 45 -38 37 -52 45
-84 45 -30 0 -38 4 -38 18 0 26 11 34 35 27 11 -3 51 -14 90 -24z m268 -65
c45 -8 51 -20 39 -78 -6 -30 -13 -42 -23 -39 -8 2 -39 9 -69 15 -75 15 -79 19
-73 69 8 68 7 68 50 53 21 -7 55 -16 76 -20z m-243 -162 c167 -153 270 -247
335 -304 33 -30 61 -57 63 -61 4 -9 -34 -400 -48 -499 -5 -36 -14 -116 -21
-178 -9 -91 -15 -112 -26 -108 -8 4 -24 6 -35 6 -20 0 -20 4 -14 63 4 34 9 89
12 122 8 91 25 261 34 345 14 121 13 148 -10 160 -10 5 -101 26 -202 45 -101
20 -203 41 -228 48 -25 6 -49 12 -55 12 -5 0 -10 9 -10 20 0 13 6 20 17 19 10
-1 16 2 13 6 -3 5 0 10 6 12 12 4 14 73 4 118 -4 14 -7 36 -9 50 -1 14 -8 36
-15 49 -8 14 -9 21 -2 17 6 -4 5 6 -3 25 -7 17 -20 36 -29 41 -26 14 -9 36 41
54 26 10 51 21 57 26 5 4 11 8 15 8 3 0 52 -44 110 -96z m663 50 c52 -14 58
-18 53 -37 -2 -12 -8 -61 -12 -110 -4 -48 -10 -90 -14 -92 -7 -4 -148 20 -155
26 -6 7 15 198 25 224 8 21 13 24 27 15 10 -5 44 -17 76 -26z m-2365 12 c15
-8 41 -29 58 -48 87 -93 96 -304 18 -398 -49 -58 -103 -72 -175 -47 -66 23
-69 29 -68 136 1 103 -18 184 -59 250 -20 32 -20 36 -5 61 26 44 61 59 136 60
40 0 79 -6 95 -14z m284 -11 c76 -12 150 -127 150 -233 0 -109 -45 -169 -142
-191 -82 -19 -114 -15 -133 18 -14 24 -15 34 -5 61 16 46 4 194 -21 260 -15
39 -17 57 -10 66 12 14 85 33 109 29 8 -2 32 -6 52 -10z m-638 -16 c52 -26 99
-87 131 -172 45 -119 30 -242 -38 -314 -27 -29 -38 -33 -79 -33 -89 0 -143 49
-173 158 -19 66 -26 73 -47 44 -10 -14 -31 -20 -88 -25 -41 -4 -96 -9 -122
-13 -64 -9 -67 5 -27 103 50 121 175 237 284 264 58 14 117 9 159 -12z m2289
-45 c36 -6 37 -8 37 -50 0 -43 -11 -56 -27 -31 -4 7 -27 27 -50 46 -47 36 -56
57 -20 47 12 -3 39 -9 60 -12z m-190 -445 c178 -31 187 -34 187 -55 0 -30 -10
-35 -51 -24 -19 5 -101 21 -183 35 -166 29 -196 40 -196 67 0 16 5 19 28 14
15 -2 111 -19 215 -37z m-2372 -70 c72 -24 126 -87 154 -179 4 -14 16 -36 26
-49 26 -32 24 -44 -6 -37 -36 9 -117 -13 -139 -38 l-19 -21 5 22 c3 12 0 30
-7 39 -10 15 -11 12 -7 -17 4 -29 3 -32 -9 -22 -10 8 -20 9 -29 3 -8 -6 -30
-10 -48 -10 -47 0 -99 -24 -107 -50 -4 -12 -4 -24 -1 -27 3 -4 6 1 6 9 0 27
30 43 104 55 68 11 72 11 95 -10 13 -12 21 -16 17 -9 -18 31 73 74 134 63 25
-4 60 -50 60 -79 0 -39 -23 -78 -43 -74 -10 2 -17 -4 -17 -14 0 -10 -5 -14
-15 -10 -8 3 -36 8 -63 12 l-47 6 2 41 2 42 -8 -42 c-8 -48 -38 -86 -59 -78
-8 3 -20 -2 -27 -12 -25 -35 -135 21 -135 69 0 10 -4 18 -9 18 -5 0 -7 -10 -5
-22 3 -13 -6 -2 -20 24 -38 70 -50 71 -44 5 2 -31 1 -54 -3 -51 -19 12 -51
143 -52 210 0 59 4 79 25 115 26 44 68 90 68 74 0 -5 6 -1 13 8 28 40 140 58
208 36z m2919 -28 l75 -16 -3 -65 c-5 -125 -14 -220 -22 -225 -5 -3 -43 0 -87
6 -43 6 -87 12 -98 13 -23 1 -25 35 -12 195 11 118 12 123 45 114 15 -3 61
-14 102 -22z m-676 9 c34 -5 108 -17 166 -26 58 -10 113 -17 123 -16 17 1 18
-5 12 -66 -10 -116 -15 -135 -29 -123 -7 6 -30 13 -52 16 -100 14 -211 38
-230 50 -25 16 -37 52 -20 58 6 2 76 -6 155 -19 80 -13 148 -21 153 -18 4 3 8
16 8 30 0 20 -5 24 -27 24 -69 0 -304 48 -323 65 -40 36 -29 40 64 25z m-320
-200 c3 -63 8 -205 11 -315 4 -110 10 -252 16 -315 11 -137 11 -176 2 -167 -3
4 -12 2 -20 -5 -7 -6 -16 -8 -19 -5 -4 3 -14 -3 -24 -15 l-17 -22 -154 27
c-85 15 -162 27 -171 27 -10 0 -19 11 -23 30 -8 37 -22 38 -36 3 -10 -27 -11
-26 -35 41 -13 38 -24 71 -24 73 0 2 -5 3 -10 3 -11 0 -11 0 -31 -71 -8 -29
-20 -49 -35 -56 -19 -9 -27 -6 -58 24 -30 29 -42 34 -68 31 -18 -3 -89 8 -158
24 l-125 29 -42 -47 c-41 -47 -43 -47 -62 -30 -23 21 -67 15 -86 -11 -10 -13
-20 -10 -75 23 -36 20 -69 43 -73 51 -9 15 -94 18 -99 3 -5 -16 -250 28 -271
49 -27 26 -15 81 23 103 45 26 51 47 28 98 -11 25 -31 59 -44 77 -16 21 -24
45 -24 72 0 41 17 91 31 91 4 0 5 8 2 19 -3 10 0 22 6 25 7 5 9 0 5 -11 -5
-12 -1 -11 11 5 13 18 15 26 6 35 -9 9 -11 8 -6 -5 10 -26 -2 -22 -16 5 -6 12
-8 19 -4 15 5 -5 13 2 19 14 12 22 42 33 52 17 3 -5 2 -9 -3 -8 -17 3 -24 -1
-18 -12 12 -18 43 19 38 44 -4 20 -3 20 7 4 11 -18 13 -18 31 -1 21 19 53 29
43 13 -3 -5 -9 -7 -14 -4 -5 3 -11 1 -15 -4 -11 -19 40 -1 55 19 15 20 16 20
16 1 0 -11 -5 -17 -10 -14 -5 3 -6 1 -3 -5 11 -16 42 -7 44 14 3 18 3 18 -5 0
-5 -12 -11 -15 -15 -9 -4 6 2 18 12 27 18 16 20 16 35 -5 8 -12 12 -27 9 -32
-3 -6 -1 -7 6 -3 6 4 9 12 6 17 -4 5 -2 16 3 25 8 15 10 15 15 0 4 -10 3 -15
-3 -11 -6 3 -7 -1 -3 -10 4 -13 8 -14 14 -4 4 7 6 16 3 20 -2 4 1 11 7 15 7 4
9 3 6 -3 -4 -6 3 -19 15 -29 12 -11 18 -14 15 -7 -4 6 -3 14 3 18 6 4 7 11 4
17 -4 7 -2 8 5 4 6 -4 9 -11 6 -16 -3 -5 0 -12 6 -16 8 -4 9 -3 5 4 -8 14 20
12 43 -2 8 -6 12 -5 8 0 -3 5 1 18 9 29 15 19 15 19 10 -6 -3 -20 0 -26 10
-25 8 1 14 6 13 12 0 5 -5 8 -10 7 -4 -2 -6 4 -2 13 5 13 7 13 14 2 5 -7 9 -8
9 -3 0 6 4 4 9 -4 12 -18 34 -4 27 18 -5 12 -2 11 9 -3 17 -23 56 -30 48 -9
-4 10 -9 11 -18 3 -10 -9 -13 -7 -10 7 2 10 4 20 4 22 1 3 12 -6 26 -19 14
-13 25 -20 25 -16 0 5 6 3 13 -3 8 -6 17 -7 21 -3 4 4 22 7 39 7 26 0 32 4 31
21 -1 11 5 21 12 21 10 0 11 -4 4 -12 -7 -9 -5 -16 5 -25 13 -11 14 -10 8 6
-6 17 -5 17 10 5 20 -16 23 -2 5 18 -11 11 -10 12 2 5 21 -12 33 -12 49 0 10
8 13 8 9 1 -4 -6 -3 -17 3 -25 7 -13 9 -13 10 0 1 8 1 17 1 21 0 3 10 5 23 5
17 0 21 -3 14 -12 -6 -8 -5 -13 5 -17 9 -4 18 -1 22 5 4 7 3 8 -4 4 -8 -5 -10
-2 -6 9 6 14 8 14 21 -2 8 -10 12 -13 9 -6 -4 6 -2 14 4 18 5 3 10 -1 10 -9 0
-24 16 -27 34 -7 13 15 14 18 1 18 -8 0 -11 -5 -8 -10 3 -6 1 -7 -6 -3 -6 4
-9 11 -6 16 6 10 24 8 44 -5 10 -5 16 -4 19 3 2 6 15 -1 30 -17 15 -15 22 -20
16 -12 -21 31 -23 38 -9 38 8 0 12 -4 10 -8 -3 -3 2 -12 10 -19 8 -7 15 -9 15
-5 0 4 8 1 18 -6 15 -13 16 -12 3 3 -7 10 -17 16 -20 13 -4 -2 -8 2 -8 10 0
11 11 7 36 -12 20 -15 30 -19 22 -10 -13 16 -12 18 12 13 15 -2 30 0 33 6 5 7
2 8 -6 3 -9 -5 -11 -4 -6 3 4 7 2 12 -3 12 -6 0 -11 -6 -12 -12 0 -10 -2 -10
-6 0 -4 9 -8 10 -18 2 -10 -8 -15 -8 -20 0 -4 6 -4 14 -1 17 3 4 6 1 6 -6 0
-7 5 -9 13 -4 18 11 40 13 52 4 17 -12 40 -6 37 9 -3 12 -1 12 9 3 10 -10 16
-10 28 -1 9 7 13 9 9 4 -13 -16 10 -43 36 -42 14 1 28 5 32 9 4 4 12 2 19 -3
8 -7 12 -5 12 5 0 8 -4 12 -8 10 -3 -3 -12 2 -18 9 -10 11 -9 14 4 12 8 -1 21
-8 27 -14 19 -19 32 -14 17 6 -13 15 -12 16 3 3 10 -7 16 -17 13 -21 -3 -5 -1
-11 4 -14 5 -4 8 5 6 19 -1 14 0 23 3 20 3 -2 12 1 21 7 13 10 14 10 4 -2 -18
-20 -16 -39 5 -35 9 1 23 -3 31 -9 11 -8 13 -8 8 1 -4 6 -3 15 3 18 8 5 7 12
-2 23 -12 15 -11 16 4 3 10 -7 15 -18 11 -25 -4 -6 2 -4 12 4 10 8 16 10 12 4
-3 -6 0 -11 8 -11 17 0 19 8 8 23 -5 5 1 0 11 -11 l19 -20 -6 23 c-3 12 -1 20
4 16 5 -3 9 -11 9 -18 0 -8 11 -12 28 -11 15 1 33 -3 40 -8 7 -6 12 -6 11 -1
-1 5 -1 22 0 38 2 59 9 18 15 -94z m646 -92 c-22 -196 -36 -296 -39 -267 -1
20 37 404 46 449 3 19 8 29 10 23 3 -7 -5 -99 -17 -205z m-672 167 c-3 -3 -9
2 -12 12 -6 14 -5 15 5 6 7 -7 10 -15 7 -18z m-341 -3 c-1 -21 -24 -26 -24 -6
0 7 4 11 9 8 4 -3 8 0 8 5 0 6 2 11 4 11 3 0 4 -8 3 -18z m173 -5 c0 -7 -4 -6
-10 3 -8 12 -10 12 -10 1 0 -8 -3 -12 -6 -8 -9 9 6 28 17 22 5 -4 9 -12 9 -18z
m146 11 c3 -4 -1 -5 -10 -4 -8 1 -18 5 -22 8 -3 4 1 5 10 4 8 -1 18 -5 22 -8z
m-972 -40 c-1 -13 -3 -25 -3 -27 -1 -2 -7 2 -14 8 -8 6 -17 8 -21 4 -4 -4 -4
1 0 11 5 12 9 14 14 6 5 -8 9 -7 13 4 9 23 14 20 11 -6z m59 -1 c3 -8 -1 -14
-9 -14 -15 0 -18 9 -7 20 9 9 10 9 16 -6z m-296 -22 c0 -8 -4 -12 -9 -9 -5 3
-6 10 -3 15 9 13 12 11 12 -6z m20 -7 c-3 -8 -6 -5 -6 6 -1 11 2 17 5 13 3 -3
4 -12 1 -19z m-80 -10 c-3 -8 -6 -5 -6 6 -1 11 2 17 5 13 3 -3 4 -12 1 -19z
m-1687 -93 c31 -1 43 14 27 35 -6 8 -2 6 11 -4 12 -11 22 -15 22 -10 0 5 7 1
14 -9 14 -18 15 -17 21 3 6 20 6 20 25 -2 l19 -23 -5 25 c-4 19 -3 22 5 9 11
-16 94 -20 109 -4 4 4 1 5 -7 0 -10 -5 -12 -4 -7 4 4 6 11 9 16 6 4 -3 10 -2
13 2 2 5 2 3 1 -4 -2 -7 1 -15 6 -18 6 -4 10 4 10 16 0 22 0 22 14 4 8 -11 12
-24 9 -29 -4 -5 -1 -6 6 -2 6 4 9 12 6 17 -7 10 23 8 41 -4 7 -4 18 1 25 10 8
9 9 14 3 10 -6 -3 -11 0 -11 7 0 8 11 12 26 11 14 -1 25 -7 24 -12 -1 -6 5
-14 13 -17 12 -5 15 -2 10 11 -5 15 -4 15 9 -1 14 -18 19 -15 16 9 -1 6 5 1
14 -9 13 -17 15 -17 21 -3 5 15 9 14 26 -6 11 -12 17 -17 14 -11 -7 15 32 26
41 12 4 -7 1 -8 -8 -3 -12 8 -12 6 0 -8 13 -17 25 -15 27 4 1 5 2 12 3 17 0 4
22 -16 49 -44 26 -27 40 -41 32 -30 -44 58 -46 62 -29 49 9 -7 19 -9 23 -5 4
4 6 0 4 -8 -2 -8 5 -14 15 -15 19 0 37 -21 37 -43 0 -7 -5 -10 -12 -6 -6 4 -8
3 -5 -3 4 -6 17 -8 29 -6 22 4 23 1 24 -57 1 -34 7 -67 14 -73 10 -10 11 -1 7
38 -5 42 -5 45 4 20 5 -16 6 -46 3 -65 -11 -52 -5 -72 26 -105 21 -22 30 -44
35 -86 l7 -56 -63 -57 c-51 -46 -70 -57 -94 -55 -65 4 -95 -1 -95 -16 0 -8 -6
-15 -14 -15 -27 0 -630 70 -633 74 -2 2 -6 136 -8 297 -2 162 -1 281 3 264 6
-23 13 -30 32 -30z m315 46 c3 -5 2 -12 -3 -15 -5 -3 -9 1 -9 9 0 17 3 19 12
6z m28 -6 c-3 -9 -8 -14 -10 -11 -3 3 -2 9 2 15 9 16 15 13 8 -4z m3087 0 c19
-3 67 -7 105 -10 55 -3 70 -8 69 -20 -3 -66 -4 -67 -21 -60 -10 4 -61 14 -113
22 -103 16 -140 32 -140 64 0 17 5 19 33 14 17 -3 48 -8 67 -10z m-3241 -8 c8
-10 7 -14 -2 -14 -8 0 -14 6 -14 14 0 7 1 13 2 13 2 0 8 -6 14 -13z m-174 -6
c3 -5 2 -12 -3 -15 -5 -3 -9 1 -9 9 0 17 3 19 12 6z m850 -131 c14 -28 30 -48
34 -45 5 2 14 -2 21 -10 18 -22 77 -38 114 -31 19 4 46 18 60 31 24 22 32 24
79 17 44 -6 53 -11 55 -30 6 -38 -15 -52 -75 -52 -96 0 -159 -39 -199 -125
-39 -82 -28 -168 28 -222 61 -59 134 -69 212 -29 31 16 49 20 51 12 2 -6 9
-28 15 -49 10 -33 9 -45 -6 -80 -10 -23 -19 -44 -21 -46 -2 -3 -32 22 -66 56
-60 58 -65 61 -132 71 -38 5 -87 17 -107 25 l-38 16 0 63 c0 35 -5 94 -10 132
-7 47 -7 73 0 80 5 5 10 15 10 20 0 6 -5 5 -12 -2 -19 -19 -36 -14 -54 13 -31
48 8 105 47 69 13 -12 19 -13 19 -5 0 7 -12 17 -27 23 -27 10 -28 13 -28 79 0
38 1 69 2 69 2 0 14 -23 28 -50z m2600 19 c39 -5 82 -11 98 -11 24 -1 27 -5
27 -34 0 -18 -4 -35 -9 -39 -9 -5 -111 7 -168 20 -26 6 -58 49 -48 65 8 12 12
12 100 -1z m-2185 -89 c0 -30 -3 -38 -14 -34 -22 9 -28 47 -9 62 23 17 23 17
23 -28z m58 -125 c17 -32 32 -63 32 -70 0 -34 -57 -56 -193 -74 -72 -10 -125
-27 -114 -37 2 -2 17 1 34 6 40 14 203 38 203 29 0 -18 -55 -101 -81 -123 -36
-31 -102 -50 -142 -42 -134 27 -180 186 -86 299 42 51 77 67 154 70 45 2 70 8
82 20 16 16 19 15 47 -2 17 -11 46 -45 64 -76z m2234 67 c6 -6 8 -22 4 -37 -6
-25 -9 -26 -54 -20 -109 14 -110 14 -121 47 l-11 31 86 -6 c47 -2 91 -10 96
-15z m-413 -532 c68 -224 116 -505 127 -741 l7 -144 -67 -48 c-36 -26 -72 -48
-79 -50 -8 -1 -14 22 -18 78 -4 44 -12 135 -18 201 -6 67 -15 268 -21 445 -5
178 -12 369 -15 424 l-5 100 24 -65 c13 -36 43 -126 65 -200z m-2279 194 c0
-11 -6 -14 -17 -10 -11 4 -8 -2 7 -13 30 -24 107 -49 175 -57 45 -6 57 -13
117 -72 37 -36 70 -64 73 -61 12 13 52 124 46 129 -11 8 -33 91 -26 98 3 3 18
2 33 -4 19 -6 35 -25 52 -61 14 -29 32 -53 40 -53 26 0 115 -57 148 -94 18
-20 41 -55 53 -77 19 -39 19 -42 3 -66 -15 -24 -17 -24 -26 -9 -8 15 -22 17
-81 14 l-70 -3 -18 50 c-10 28 -18 45 -18 39 -1 -6 6 -30 14 -53 10 -31 11
-41 2 -41 -7 0 -22 -3 -34 -6 -16 -4 -23 0 -28 18 -4 12 -14 31 -23 41 -16 18
-67 23 -77 7 -4 -6 -13 -5 -25 3 -16 9 -26 9 -52 -5 -18 -9 -48 -16 -66 -15
-41 1 -78 -33 -97 -89 -21 -63 -40 -55 -52 23 l-11 68 5 -71 5 -71 -34 -7
c-21 -4 -61 0 -99 10 -42 11 -83 14 -120 11 -70 -8 -134 -28 -134 -44 0 -6 -3
-15 -7 -19 -4 -3 -6 22 -3 56 5 83 49 172 114 233 96 90 192 71 247 -47 13
-28 24 -44 24 -36 -1 8 -7 26 -15 40 -8 14 -14 28 -15 31 0 4 27 -2 61 -12 62
-19 119 -25 119 -11 0 4 -21 8 -48 9 -58 2 -124 25 -175 60 -36 25 -39 29 -33
65 9 57 36 118 52 118 8 0 14 -7 14 -16z m2734 -9 c32 -8 63 -18 69 -24 5 -5
16 -7 23 -4 8 3 14 1 14 -4 0 -5 -9 -9 -20 -10 -11 -1 -20 1 -20 5 0 4 -39 6
-87 5 -66 -1 -94 2 -113 14 -23 15 -23 17 -5 24 30 12 74 10 139 -6z m399 -11
c32 -8 78 -27 101 -42 22 -14 45 -25 49 -24 5 1 6 -2 2 -8 -4 -6 -21 -2 -46
10 -22 12 -76 25 -122 31 -84 10 -156 27 -170 40 -17 13 126 9 186 -7z m-2338
-4 c3 -5 -3 -10 -14 -10 -12 0 -21 5 -21 10 0 6 6 10 14 10 8 0 18 -4 21 -10z
m-995 -10 c0 -5 -2 -10 -4 -10 -3 0 -8 5 -11 10 -3 6 -1 10 4 10 6 0 11 -4 11
-10z m34 4 c25 -10 20 -44 -6 -44 -19 0 -20 2 -8 11 11 8 12 12 3 16 -7 2 -13
9 -13 14 0 11 3 11 24 3z m-677 -36 c-3 -8 -6 -5 -6 6 -1 11 2 17 5 13 3 -3 4
-12 1 -19z m2021 -53 c-10 -11 -48 -14 -48 -4 0 5 12 9 27 9 14 0 24 -2 21 -5z
m-1920 -286 c2 -90 6 -183 8 -206 2 -23 -1 -45 -6 -48 -6 -4 -10 18 -10 54 0
80 -12 111 -45 111 -22 0 -25 4 -25 33 0 17 -3 49 -6 70 -6 31 -11 37 -30 37
-13 0 -24 6 -25 13 0 6 -2 30 -4 52 -2 22 -6 68 -9 103 l-6 63 78 -59 77 -59
3 -164z m1922 252 c0 -5 -11 -11 -25 -13 -17 -4 -25 -1 -25 8 0 8 11 14 25 14
14 0 25 -4 25 -9z m150 -21 c0 -5 -4 -10 -9 -10 -6 0 -13 5 -16 10 -3 6 1 10
9 10 9 0 16 -4 16 -10z m45 -20 c0 -13 -6 -25 -12 -27 -9 -3 -13 6 -13 27 0
21 4 30 13 28 6 -3 12 -15 12 -28z m-685 10 c0 -5 -7 -10 -15 -10 -8 0 -15 5
-15 10 0 6 7 10 15 10 8 0 15 -4 15 -10z m80 -12 c0 -6 -7 -7 -16 -4 -9 3 -20
6 -25 6 -5 0 -9 4 -9 9 0 4 11 6 25 3 14 -2 25 -9 25 -14z m54 6 c25 -9 19
-24 -9 -24 -16 0 -25 6 -25 15 0 16 9 19 34 9z m674 -22 c4 -25 -13 -30 -22
-6 -9 25 -7 36 7 32 6 -3 13 -14 15 -26z m-608 -14 c0 -49 9 -56 75 -59 l60
-4 -3 38 c-2 20 1 37 6 37 5 0 13 -35 16 -77 3 -43 9 -108 12 -145 l6 -68 -75
0 c-66 0 -75 2 -80 20 -5 18 0 20 59 20 l65 0 -3 58 -3 57 -63 3 c-58 3 -63 5
-57 23 5 15 1 25 -14 35 -15 11 -21 26 -21 55 0 21 5 39 10 39 6 0 10 -15 10
-32z m60 7 c0 -8 3 -20 6 -29 5 -12 0 -16 -20 -16 -23 0 -26 4 -26 34 0 29 3
33 20 29 11 -3 20 -11 20 -18z m590 0 c0 -14 -4 -25 -9 -25 -5 0 -11 11 -13
25 -4 17 -1 25 8 25 8 0 14 -11 14 -25z m-532 -18 c3 -22 -1 -27 -17 -27 -17
0 -21 6 -21 31 0 24 4 30 18 27 10 -2 18 -14 20 -31z m233 6 c13 23 26 22 34
-4 l7 -21 23 22 24 23 7 -27 c6 -25 8 -26 23 -11 23 20 31 19 31 -4 0 -27 15
-34 30 -16 20 24 30 18 30 -17 l0 -31 23 21 c26 25 37 20 37 -16 l0 -25 25 23
25 23 0 -38 c0 -36 1 -37 18 -22 26 24 32 21 32 -15 0 -25 3 -29 12 -20 7 7
17 12 24 12 8 0 1 -29 -21 -82 -18 -46 -54 -149 -80 -230 -38 -119 -51 -148
-66 -148 -10 0 -20 -4 -23 -9 -3 -5 9 -8 27 -7 28 1 32 -2 35 -29 5 -36 -21
-59 -49 -44 -23 12 -27 -6 -5 -18 9 -5 16 -29 18 -68 l3 -59 -38 -19 c-27 -12
-56 -17 -95 -15 -54 3 -57 5 -60 30 -2 17 -15 36 -33 48 -38 28 -37 41 4 34
22 -4 27 -2 17 4 -8 5 -44 12 -80 15 -77 7 -159 34 -167 54 -5 14 19 125 37
168 4 11 11 28 14 38 3 10 15 17 32 17 38 0 94 -22 94 -36 0 -7 16 -26 37 -44
32 -29 41 -32 82 -27 35 4 52 12 74 37 26 29 29 39 25 82 -8 80 -78 131 -147
107 -24 -8 -35 -6 -66 15 -40 28 -74 33 -106 16 -29 -16 -25 15 5 43 19 18 30
49 53 160 27 135 28 137 46 114 16 -20 18 -21 28 -4z m-436 -39 c39 -25 73
-55 77 -67 3 -12 6 -62 6 -112 -1 -80 -2 -84 -8 -40 -5 28 -9 71 -9 98 l-1 47
-70 0 c-68 0 -70 1 -70 26 0 14 -5 34 -11 45 -11 21 -6 49 9 49 4 0 39 -21 77
-46z m35 26 c0 -5 -7 -7 -15 -4 -8 4 -15 8 -15 10 0 2 7 4 15 4 8 0 15 -4 15
-10z m1040 -36 c0 -26 4 -34 18 -34 9 0 27 -3 40 -6 19 -6 22 -3 22 25 0 28 3
31 29 31 25 0 30 -4 33 -27 2 -23 8 -29 36 -31 29 -3 32 -1 32 22 0 44 20 28
21 -16 0 -24 1 -58 2 -76 1 -17 0 -32 -3 -32 -15 1 -29 18 -35 43 -7 28 -36
42 -72 35 -13 -2 -18 -12 -18 -33 0 -27 4 -31 35 -36 32 -5 31 -6 -18 -10 -48
-4 -52 -2 -52 18 0 43 -18 73 -45 73 -23 0 -25 -4 -25 -43 0 -32 -4 -44 -15
-44 -12 0 -15 13 -15 56 0 31 -3 73 -6 93 -6 34 -5 36 15 31 16 -4 21 -13 21
-39z m40 0 c0 -15 -6 -24 -15 -24 -10 0 -15 10 -15 30 0 22 4 28 15 24 8 -4
15 -17 15 -30z m-2388 15 c58 -1 117 -4 131 -6 25 -5 25 -5 8 -44 -13 -32 -21
-39 -45 -39 -28 0 -28 -1 -22 -37 3 -21 6 -59 6 -85 0 -41 3 -48 20 -48 11 0
20 -6 20 -14 0 -21 -19 -30 -35 -16 -11 9 -21 8 -45 -4 -23 -11 -37 -12 -53
-5 -16 7 -31 7 -52 -2 -17 -7 -32 -12 -35 -12 -3 1 -19 4 -37 8 -28 6 -37 2
-68 -30 -19 -20 -33 -41 -30 -45 3 -5 1 -11 -5 -15 -6 -4 -10 14 -10 47 0 82
-11 321 -15 342 -4 17 2 18 78 12 45 -3 130 -6 189 -7z m2256 -12 c2 -10 -3
-17 -12 -17 -10 0 -16 9 -16 21 0 24 23 21 28 -4z m162 -2 c0 -14 -4 -25 -10
-25 -5 0 -10 11 -10 25 0 14 5 25 10 25 6 0 10 -11 10 -25z m129 -19 c0 -11
-3 -15 -6 -8 -4 9 -9 10 -18 2 -9 -8 -14 -6 -19 6 -9 22 1 33 24 27 13 -3 20
-13 19 -27z m-1653 -17 c24 -48 1 -88 -43 -77 -10 2 -33 90 -26 100 2 5 15 8
28 8 17 0 29 -9 41 -31z m-80 -15 c20 -48 8 -88 -29 -92 -22 -3 -27 1 -32 25
-3 15 -12 40 -19 55 -17 32 -5 48 37 48 23 0 31 -7 43 -36z m-97 -10 c28 -35
28 -90 1 -104 -17 -9 -24 -6 -44 14 -20 23 -27 24 -56 16 -19 -5 -35 -8 -37
-6 -9 9 11 58 34 81 34 33 75 33 102 -1z m502 -96 c89 -186 175 -508 166 -626
-5 -71 -31 -113 -53 -90 -22 23 -20 55 5 82 16 17 24 39 27 73 l3 48 -9 -44
c-20 -92 -63 -95 -74 -5 -5 46 -3 60 11 76 17 19 16 24 -5 106 -12 48 -40 123
-62 167 -52 106 -86 295 -54 295 3 0 23 -37 45 -82z m89 68 c8 -2 -13 -4 -47
-5 -35 0 -63 2 -63 7 0 7 76 5 110 -2z m124 -18 c12 -47 8 -58 -24 -58 -28 0
-30 2 -30 40 0 35 3 40 24 40 16 0 26 -7 30 -22z m1096 2 c0 -25 -30 -27 -31
-2 -1 16 -2 16 -6 0 -6 -24 -23 -23 -23 2 0 16 7 20 30 20 23 0 30 -4 30 -20z
m-273 -37 c-3 -10 -5 -2 -5 17 0 19 2 27 5 18 2 -10 2 -26 0 -35z m383 18 c0
-10 -8 -17 -20 -17 -14 0 -20 7 -20 22 0 17 4 21 20 17 11 -3 20 -13 20 -22z
m-3018 -37 c5 -89 -18 -84 -29 6 -5 41 -3 50 10 50 11 0 16 -14 19 -56z m485
-6 c-2 -13 -4 -3 -4 22 0 25 2 35 4 23 2 -13 2 -33 0 -45z m1212 46 c2 -2 -19
-4 -47 -4 -29 0 -52 4 -52 9 0 8 90 4 99 -5z m841 1 c0 -2 -10 -9 -22 -15 -22
-11 -22 -10 -4 4 21 17 26 19 26 11z m46 -24 c25 4 36 -4 14 -10 -15 -4 -28
-3 -32 3 -5 8 -11 7 -20 -2 -6 -6 -21 -12 -32 -12 -18 1 -17 3 7 16 15 8 27
20 27 27 0 7 6 4 14 -6 8 -10 18 -17 22 -16z m-619 8 c-9 -6 -15 -15 -11 -21
4 -7 10 -5 16 3 6 10 7 6 2 -11 -8 -31 -5 -27 -29 -32 -17 -2 -21 3 -23 35 -3
36 -2 37 30 37 27 -1 30 -2 15 -11z m-401 -245 c-8 -20 -100 -19 -120 1 -19
19 -26 19 -26 0 0 -11 -9 -14 -32 -11 -18 2 -43 4 -56 5 -15 1 -21 5 -16 12 4
7 1 10 -7 7 -8 -3 -15 -10 -15 -16 -1 -7 -2 -16 -3 -20 0 -5 -18 -7 -38 -6
-125 9 -153 9 -158 -4 -3 -8 0 -10 7 -6 6 4 16 1 22 -7 11 -14 60 -40 85 -45
23 -4 38 -24 18 -24 -9 0 -17 5 -17 12 0 6 -3 8 -6 5 -4 -4 10 -39 31 -78 46
-89 58 -134 39 -150 -11 -9 -15 -7 -20 5 -4 9 -4 19 -1 23 4 3 0 18 -8 33 -8
15 -16 38 -19 51 -2 13 -11 40 -20 60 -13 32 -18 35 -45 31 -17 -2 -31 -8 -31
-12 0 -10 -50 -31 -60 -25 -7 4 -77 -20 -88 -30 -8 -8 10 -45 19 -39 5 3 7 10
4 15 -4 5 5 9 19 9 13 0 27 -6 30 -12 3 -7 2 0 -1 16 -5 26 -4 29 15 23 12 -3
44 3 72 14 l50 19 14 -29 15 -28 -50 -6 c-59 -7 -77 -16 -58 -28 12 -8 12 -10
1 -18 -11 -7 -10 -9 3 -14 9 -4 13 -3 10 3 -3 6 -1 10 4 10 13 0 14 -10 1 -30
-6 -10 -10 -11 -10 -2 0 6 -5 12 -11 12 -5 0 -7 -5 -3 -11 4 -7 1 -10 -7 -7
-8 3 -13 11 -11 17 1 7 -2 10 -8 6 -8 -5 -7 -11 1 -21 10 -12 8 -18 -7 -29
-10 -8 -23 -14 -29 -14 -5 0 -2 6 7 13 15 11 16 15 3 32 -9 12 -14 14 -15 6 0
-7 -4 -10 -10 -7 -5 3 2 17 18 30 l27 25 -35 -7 c-19 -3 -36 -7 -38 -8 -2 -2
4 -20 12 -40 21 -48 21 -47 -16 -43 -24 2 -34 9 -36 23 -2 11 -6 27 -9 35 -15
37 -31 106 -26 114 4 5 1 6 -5 2 -7 -4 -10 -22 -8 -42 5 -37 -18 -60 -34 -35
-5 10 -9 9 -13 -2 -7 -20 1 -27 32 -28 25 -1 24 -2 -4 -8 -45 -10 -65 -2 -65
25 0 14 -7 27 -15 30 -8 4 -15 14 -15 24 0 10 -4 20 -9 22 -4 2 -12 14 -16 27
-7 23 -6 23 15 8 32 -23 128 -12 156 18 11 12 25 24 31 26 6 2 15 21 18 42 l8
39 -25 -24 c-13 -12 -23 -26 -22 -29 2 -3 -41 -7 -95 -8 -111 -3 -103 -10
-116 94 -6 45 -5 51 11 51 28 2 72 12 85 20 8 5 9 3 4 -6 -6 -9 -4 -11 6 -4
28 17 69 13 89 -9 11 -11 20 -27 20 -34 0 -8 5 -11 10 -8 7 4 4 18 -8 38 -33
54 -6 117 49 117 22 0 35 -9 55 -40 14 -22 24 -46 21 -54 -3 -8 3 -25 14 -38
11 -13 17 -16 12 -8 -4 8 -8 30 -8 47 0 27 5 35 30 45 17 7 32 13 35 13 3 1
19 4 35 8 17 4 41 10 55 13 24 5 57 12 90 19 8 2 19 4 23 4 5 1 5 7 1 14 -5 7
0 6 11 -3 20 -16 21 -16 49 8 13 11 17 12 11 3 -6 -11 -4 -13 9 -8 10 4 20 7
22 7 3 0 2 6 -2 13 -6 10 -4 10 7 0 19 -18 39 -16 40 5 1 9 12 -36 26 -101 13
-66 22 -125 19 -133z m134 236 c0 -5 -20 -10 -45 -10 -25 0 -45 5 -45 10 0 6
20 10 45 10 25 0 45 -4 45 -10z m-947 -25 c54 -7 54 -15 -1 -30 -30 -9 -38
-16 -40 -39 -2 -19 -8 -26 -18 -22 -8 3 -14 1 -14 -4 0 -5 7 -10 17 -12 13 -2
21 -30 38 -123 12 -66 25 -135 29 -152 l8 -33 -62 0 c-110 0 -158 38 -180 145
-14 66 -17 169 -7 217 7 35 11 37 60 47 74 15 90 17 107 15 8 -2 37 -6 63 -9z
m2200 8 c-7 -2 -19 -2 -25 0 -7 3 -2 5 12 5 14 0 19 -2 13 -5z m-5 -18 c11
-11 -5 -10 -68 2 l-65 13 64 -5 c35 -3 67 -7 69 -10z m-1260 -2 c-10 -2 -28
-2 -40 0 -13 2 -5 4 17 4 22 1 32 -1 23 -4z m1325 -10 c-7 -2 -21 -2 -30 0
-10 3 -4 5 12 5 17 0 24 -2 18 -5z m-1313 -23 c0 -5 -11 -10 -24 -10 -14 0
-28 5 -31 10 -4 6 7 10 24 10 17 0 31 -4 31 -10z m893 3 c-18 -2 -48 -2 -65 0
-18 2 -4 4 32 4 36 0 50 -2 33 -4z m135 -10 c-15 -2 -42 -2 -60 0 -18 2 -6 4
27 4 33 0 48 -2 33 -4z m65 0 c-7 -2 -19 -2 -25 0 -7 3 -2 5 12 5 14 0 19 -2
13 -5z m-1093 -23 c0 -5 -9 -10 -21 -10 -11 0 -17 5 -14 10 3 6 13 10 21 10 8
0 14 -4 14 -10z m229 -36 c3 -3 -2 -11 -10 -19 -13 -14 -28 -14 -130 0 -63 8
-116 16 -119 16 -3 1 13 5 35 8 42 6 217 2 224 -5z m117 0 c44 -21 48 -28 30
-56 -25 -41 -29 -68 -11 -68 13 0 16 6 12 21 -8 30 1 48 34 64 78 41 159 -8
159 -98 0 -23 -8 -41 -28 -60 -57 -54 -134 -41 -170 29 -10 20 -22 35 -25 34
-4 0 -24 4 -44 9 -23 7 -42 7 -54 1 -23 -13 -29 -3 -25 51 3 52 10 67 40 79
31 13 44 12 82 -6z m-1569 -26 c35 -32 30 -58 -9 -58 -26 0 -37 6 -50 30 -17
30 -17 31 5 40 30 12 28 13 54 -12z m-95 -2 c10 -7 22 -24 27 -38 l10 -26 -97
-7 c-87 -7 -133 -12 -151 -18 -3 -1 -7 1 -8 6 -8 21 0 39 25 62 34 32 64 27
106 -18 16 -18 27 -25 24 -17 -19 54 -19 58 -1 63 32 8 48 7 65 -7z m1461 -13
c-7 -2 -21 -2 -30 0 -10 3 -4 5 12 5 17 0 24 -2 18 -5z m-123 -13 c0 -5 -8
-10 -17 -10 -15 0 -16 2 -3 10 19 12 20 12 20 0z m-98 -86 c14 -33 34 -93 43
-133 17 -67 17 -74 2 -89 -9 -8 -19 -14 -21 -11 -3 3 -17 63 -31 134 -14 72
-28 141 -31 155 -8 39 9 12 38 -56z m1345 60 c-3 -3 -12 -4 -19 -1 -8 3 -5 6
6 6 11 1 17 -2 13 -5z m-64 -11 c-7 -2 -19 -2 -25 0 -7 3 -2 5 12 5 14 0 19
-2 13 -5z m122 -12 c-6 -5 -38 -12 -72 -16 -34 -3 -77 -10 -95 -16 -18 -5 -53
-9 -78 -9 -33 0 -41 -3 -30 -10 12 -8 10 -10 -10 -11 -237 -10 -242 -9 -75 16
197 30 229 35 270 44 56 12 101 13 90 2z m-242 -8 c-7 -2 -21 -2 -30 0 -10 3
-4 5 12 5 17 0 24 -2 18 -5z m-2638 -13 c4 -6 26 -8 53 -5 40 5 238 -17 249
-28 2 -2 -36 -7 -84 -10 -143 -10 -263 8 -263 39 0 16 36 19 45 4z m2578 3
c-7 -2 -19 -2 -25 0 -7 3 -2 5 12 5 14 0 19 -2 13 -5z m-60 -10 c-7 -2 -21 -2
-30 0 -10 3 -4 5 12 5 17 0 24 -2 18 -5z m-60 -10 c-7 -2 -21 -2 -30 0 -10 3
-4 5 12 5 17 0 24 -2 18 -5z m-1186 -9 c-3 -3 -12 -4 -19 -1 -8 3 -5 6 6 6 11
1 17 -2 13 -5z m160 -13 c10 -16 9 -19 -15 -19 -15 0 -30 5 -34 12 -6 8 -11 7
-18 -4 -8 -12 -10 -11 -10 8 0 18 5 22 33 22 21 0 36 -7 44 -19z m-1057 -17
c0 -14 -8 -16 -46 -10 -26 3 -61 7 -78 8 -22 1 -16 3 19 8 90 12 105 11 105
-6z m912 -5 c15 -8 18 -17 13 -37 -7 -26 -14 -92 -15 -140 0 -29 -26 -39 -48
-19 -9 8 -28 17 -42 19 -20 2 -25 9 -26 33 -2 52 -4 55 -26 56 l-23 2 22 4
c23 4 37 37 42 97 1 10 76 0 103 -15z m-155 5 c-3 -3 -12 -4 -19 -1 -8 3 -5 6
6 6 11 1 17 -2 13 -5z m-1112 -14 c3 -5 1 -10 -4 -10 -6 0 -11 5 -11 10 0 6 2
10 4 10 3 0 8 -4 11 -10z m195 0 c53 -2 59 -3 30 -9 -49 -9 -220 -1 -195 9 11
4 38 7 60 5 22 -1 69 -3 105 -5z m2200 -2 c-77 -15 -180 -21 -180 -10 0 15 31
19 135 19 80 0 85 0 45 -9z m-1273 -4 c-3 -3 -12 -4 -19 -1 -8 3 -5 6 6 6 11
1 17 -2 13 -5z m-1019 -19 c9 -8 -185 -16 -230 -9 -49 7 -51 8 -23 15 26 6
245 1 253 -6z m-238 -19 c0 -9 -30 -14 -35 -6 -4 6 3 10 14 10 12 0 21 -2 21
-4z m433 -3 c-7 -2 -19 -2 -25 0 -7 3 -2 5 12 5 14 0 19 -2 13 -5z m-76 -9
c-3 -3 -12 -4 -19 -1 -8 3 -5 6 6 6 11 1 17 -2 13 -5z m1456 -11 c-7 -2 -19
-2 -25 0 -7 3 -2 5 12 5 14 0 19 -2 13 -5z m-1656 -9 c-3 -3 -12 -4 -19 -1 -8
3 -5 6 6 6 11 1 17 -2 13 -5z m1600 0 c-3 -3 -12 -4 -19 -1 -8 3 -5 6 6 6 11
1 17 -2 13 -5z m-1684 -11 c-7 -2 -21 -2 -30 0 -10 3 -4 5 12 5 17 0 24 -2 18
-5z m1775 -5 c-3 -8 -28 -14 -64 -16 -66 -4 -68 4 -3 17 63 13 71 12 67 -1z
m-1851 -4 c-3 -3 -12 -4 -19 -1 -8 3 -5 6 6 6 11 1 17 -2 13 -5z m580 -11 c19
-12 47 -17 98 -17 l72 0 20 -88 c11 -49 18 -90 16 -92 -8 -7 -151 28 -200 50
-49 21 -53 26 -53 56 0 39 11 108 17 108 2 0 16 -8 30 -17z m3053 -2 c0 -4
-17 -5 -37 -2 -34 4 -35 5 -13 11 26 7 50 3 50 -9z m307 5 c4 -4 -48 -6 -115
-5 -67 0 -120 4 -118 8 6 9 224 7 233 -3z m-267 -2 c0 -8 -19 -13 -24 -6 -3 5
1 9 9 9 8 0 15 -2 15 -3z m-1860 -25 c34 0 34 -1 -14 -15 -40 -13 -50 -13 -57
-2 -15 22 -10 31 14 24 12 -3 38 -6 57 -7z m-652 -32 c2 -19 -1 -27 -12 -27
-9 0 -16 -5 -16 -12 0 -9 -3 -9 -12 0 -8 8 -9 15 -3 20 6 4 10 13 11 20 2 29
5 33 17 30 6 -3 13 -17 15 -31z m112 13 c0 -5 -5 -10 -11 -10 -5 0 -7 5 -4 10
3 6 8 10 11 10 2 0 4 -4 4 -10z m2728 -28 c21 -14 -22 -98 -53 -106 -15 -4
-102 9 -203 29 -211 42 -212 43 -212 60 0 7 8 15 18 17 35 8 437 8 450 0z
m-3178 -16 c0 -2 -9 -6 -20 -9 -11 -3 -18 -1 -14 4 5 9 34 13 34 5z m790 -31
c0 -10 -10 -15 -27 -15 l-28 0 25 14 c14 8 26 14 28 15 1 1 2 -6 2 -14z m29
-90 c5 -5 11 -29 15 -51 4 -31 2 -45 -9 -54 -21 -17 -24 -12 -36 59 -7 47 -7
72 3 99 l13 36 3 -40 c2 -21 7 -43 11 -49z m-699 56 c0 -10 -63 -35 -113 -46
-55 -11 -23 18 39 36 72 21 74 21 74 10z m510 -1 c-20 -13 -33 -13 -25 0 3 6
14 10 23 10 15 0 15 -2 2 -10z m2220 -29 c47 -11 125 -27 174 -36 49 -8 91
-17 93 -18 1 -2 -3 -12 -11 -22 -13 -19 -48 -23 -187 -24 -29 0 -51 -6 -59
-16 -9 -10 -31 -15 -75 -15 l-62 0 -6 72 c-7 81 -4 90 26 83 12 -2 60 -13 107
-24z m-3187 12 c-7 -2 -19 -2 -25 0 -7 3 -2 5 12 5 14 0 19 -2 13 -5z m-56 -9
c-3 -3 -12 -4 -19 -1 -8 3 -5 6 6 6 11 1 17 -2 13 -5z m-70 -10 c-3 -3 -12 -4
-19 -1 -8 3 -5 6 6 6 11 1 17 -2 13 -5z m203 -9 c0 -11 -12 -15 -47 -15 -27 0
-59 4 -73 7 -23 7 -21 8 15 14 75 12 105 10 105 -6z m-257 -2 c-7 -2 -19 -2
-25 0 -7 3 -2 5 12 5 14 0 19 -2 13 -5z m-66 -9 c-3 -3 -12 -4 -19 -1 -8 3 -5
6 6 6 11 1 17 -2 13 -5z m-70 -10 c-3 -3 -12 -4 -19 -1 -8 3 -5 6 6 6 11 1 17
-2 13 -5z m381 -11 c18 -3 31 -10 29 -17 -3 -6 -10 -10 -17 -8 -7 1 -18 -2
-25 -8 -7 -6 -17 -10 -21 -9 -5 1 -11 0 -14 -1 -3 -1 -14 -3 -25 -5 -11 -1
-54 -12 -95 -23 -142 -38 -178 -41 -307 -21 -66 11 -73 14 -73 35 0 20 7 24
48 30 26 4 97 15 157 25 106 17 250 18 343 2z m-473 -127 c-35 -6 -50 -6 -53
3 -2 6 -8 9 -13 5 -5 -3 -9 1 -9 9 0 11 11 12 63 3 l62 -10 -50 -10z m2975
-106 c0 -25 -5 -40 -16 -44 -9 -3 -75 -6 -147 -5 -106 1 -125 3 -97 11 139 40
208 62 224 74 27 18 36 9 36 -36z m-601 -48 c1 -22 -2 -23 -61 -20 -48 2 -64
7 -66 19 -2 12 9 20 40 28 24 6 50 15 58 21 17 10 28 -8 29 -48z"/>
<path d="M4320 2701 c0 -6 4 -13 10 -16 6 -3 7 1 4 9 -7 18 -14 21 -14 7z"/>
<path d="M3126 2462 c-4 -7 -2 -12 4 -12 6 0 8 -5 4 -12 -5 -9 -2 -9 9 1 9 7
17 19 17 25 0 6 -4 5 -9 -3 -7 -11 -9 -11 -13 0 -3 10 -6 10 -12 1z"/>
<path d="M3100 2451 c0 -6 4 -13 10 -16 6 -3 7 1 4 9 -7 18 -14 21 -14 7z"/>
<path d="M2754 2439 c-3 -6 -2 -15 3 -20 5 -5 9 -1 9 11 0 23 -2 24 -12 9z"/>
<path d="M2920 2441 c0 -6 4 -13 10 -16 6 -3 7 1 4 9 -7 18 -14 21 -14 7z"/>
<path d="M2156 2397 c3 -10 9 -15 12 -12 3 3 0 11 -7 18 -10 9 -11 8 -5 -6z"/>
<path d="M1934 2329 c-3 -6 -2 -15 3 -20 5 -5 9 -1 9 11 0 23 -2 24 -12 9z"/>
<path d="M2598 1802 c-21 -2 -38 -6 -38 -10 1 -17 19 -34 29 -28 6 4 11 1 11
-6 0 -8 3 -9 8 -3 4 6 18 15 31 21 33 14 8 30 -41 26z"/>
<path d="M967 2333 c3 -7 6 -13 8 -13 2 0 5 6 8 13 3 8 -1 14 -8 14 -7 0 -11
-6 -8 -14z"/>
<path d="M613 2303 c0 -9 4 -10 14 -2 7 6 13 12 13 14 0 1 -6 2 -13 2 -8 0
-14 -6 -14 -14z"/>
<path d="M1270 2276 c0 -2 7 -9 15 -16 13 -11 14 -10 9 4 -5 14 -24 23 -24 12z"/>
<path d="M598 2073 c7 -3 16 -2 19 1 4 3 -2 6 -13 5 -11 0 -14 -3 -6 -6z"/>
<path d="M1400 2063 c0 -5 5 -15 10 -23 7 -11 12 -12 21 -3 6 6 8 16 5 22 -8
12 -36 15 -36 4z"/>
<path d="M1861 1674 c0 -11 3 -14 6 -6 3 7 2 16 -1 19 -3 4 -6 -2 -5 -13z"/>
<path d="M1870 1627 c0 -2 13 -28 30 -58 16 -30 30 -49 29 -44 0 6 -6 21 -14
35 -20 35 -18 41 10 30 20 -7 25 -6 25 5 0 9 -6 12 -15 9 -8 -4 -26 1 -40 10
-14 9 -25 15 -25 13z"/>
<path d="M1642 1580 c0 -14 2 -19 5 -12 2 6 2 18 0 25 -3 6 -5 1 -5 -13z"/>
<path d="M2530 979 c0 -12 38 -31 54 -27 7 2 -2 10 -20 19 -19 9 -34 13 -34 8z"/>
<path d="M2920 859 c0 -5 5 -7 10 -4 6 3 10 -1 10 -10 0 -9 5 -13 10 -10 18
11 11 35 -10 35 -11 0 -20 -5 -20 -11z"/>
<path d="M777 1373 c-10 -9 -8 -146 2 -162 7 -10 34 -13 117 -12 60 1 110 4
112 6 3 2 1 43 -3 90 l-7 85 -107 0 c-59 0 -111 -3 -114 -7z m105 -83 c2 -40
-1 -60 -8 -60 -6 0 -25 -3 -41 -6 -30 -6 -30 -6 -37 50 -4 31 -5 60 -1 66 3 5
24 10 45 10 l38 0 4 -60z m88 1 c0 -57 -1 -59 -29 -63 -26 -4 -30 -1 -35 25
-3 16 -6 45 -6 63 0 32 2 34 35 34 l35 0 0 -59z"/>
<path d="M1716 1083 c-6 -14 -5 -15 5 -6 7 7 10 15 7 18 -3 3 -9 -2 -12 -12z"/>
<path d="M1442 901 c-11 -6 -9 -9 6 -13 11 -3 25 -1 31 5 8 8 11 6 11 -7 0 -9
-4 -15 -9 -11 -5 3 -13 0 -17 -6 -4 -8 -9 -7 -15 2 -7 11 -9 10 -9 -3 0 -20 4
-21 38 -12 15 4 22 14 22 30 0 18 -5 24 -22 24 -13 0 -29 -4 -36 -9z"/>
<path d="M1440 825 c0 -8 4 -15 8 -15 5 0 9 7 9 15 0 8 -4 15 -9 15 -4 0 -8
-7 -8 -15z"/>
<path d="M2145 1010 c-3 -5 -1 -10 4 -10 6 0 11 5 11 10 0 6 -2 10 -4 10 -3 0
-8 -4 -11 -10z"/>
<path d="M2152 3873 c14 -16 40 -50 59 -76 51 -73 67 -93 159 -212 47 -60 90
-116 96 -124 9 -12 19 0 54 60 24 41 74 124 111 184 36 61 76 129 88 153 l21
42 -30 0 c-26 0 -30 -3 -30 -28 0 -18 -26 -71 -66 -138 -37 -60 -83 -136 -102
-168 -28 -48 -37 -57 -46 -45 -230 305 -292 379 -315 379 l-25 0 26 -27z"/>
<path d="M4060 416 c-5 -15 -10 -31 -10 -37 0 -28 -64 -201 -89 -242 -57 -89
-137 -113 -193 -56 -30 29 -30 32 -24 96 4 35 13 90 21 121 18 69 18 72 0 72
-17 0 -32 -49 -47 -157 -13 -97 -9 -115 34 -172 33 -42 34 -43 86 -39 104 9
156 77 214 279 28 99 37 144 29 152 -7 7 -13 2 -21 -17z"/>
</g>
</svg>
